<?xml version="1.0" encoding="UTF-8" standalone="no"?>
<!-- Created with Inkscape (http://www.inkscape.org/) -->

<svg
   xmlns:i="http://ns.adobe.com/AdobeIllustrator/10.0/"
   xmlns:a="http://ns.adobe.com/AdobeSVGViewerExtensions/3.0/"
   xmlns:dc="http://purl.org/dc/elements/1.1/"
   xmlns:cc="http://creativecommons.org/ns#"
   xmlns:rdf="http://www.w3.org/1999/02/22-rdf-syntax-ns#"
   xmlns:svg="http://www.w3.org/2000/svg"
   xmlns="http://www.w3.org/2000/svg"
   xmlns:xlink="http://www.w3.org/1999/xlink"
   xmlns:sodipodi="http://sodipodi.sourceforge.net/DTD/sodipodi-0.dtd"
   xmlns:inkscape="http://www.inkscape.org/namespaces/inkscape"
   width="468px"
   height="60px"
   id="svg6692"
   version="1.1"
   inkscape:version="0.47 r22583"
   sodipodi:docname="amrox.svg"
   inkscape:export-filename="/home/amdiab/Desktop/logo.gif.png"
   inkscape:export-xdpi="39.439999"
   inkscape:export-ydpi="39.439999">
  <defs
     id="defs6694">
    <inkscape:perspective
       sodipodi:type="inkscape:persp3d"
       inkscape:vp_x="0 : 30 : 1"
       inkscape:vp_y="0 : 1000 : 0"
       inkscape:vp_z="468 : 30 : 1"
       inkscape:persp3d-origin="234 : 20 : 1"
       id="perspective6700" />
    <inkscape:perspective
       id="perspective6564"
       inkscape:persp3d-origin="0.5 : 0.33333333 : 1"
       inkscape:vp_z="1 : 0.5 : 1"
       inkscape:vp_y="0 : 1000 : 0"
       inkscape:vp_x="0 : 0.5 : 1"
       sodipodi:type="inkscape:persp3d" />
    <linearGradient
       inkscape:collect="always"
       xlink:href="#XMLID_19_"
       id="linearGradient5658"
       gradientUnits="userSpaceOnUse"
       x1="117.5161"
       y1="65.782204"
       x2="117.2813"
       y2="60.676498" />
    <linearGradient
       id="XMLID_19_"
       gradientUnits="userSpaceOnUse"
       x1="117.5161"
       y1="65.782204"
       x2="117.2813"
       y2="60.676498">
      <stop
         offset="0"
         style="stop-color:#FFFFFF"
         id="stop260" />
      <stop
         offset="1"
         style="stop-color:#000000"
         id="stop262" />
      <a:midPointStop
         offset="0"
         style="stop-color:#FFFFFF" />
      <a:midPointStop
         offset="0.5"
         style="stop-color:#FFFFFF" />
      <a:midPointStop
         offset="1"
         style="stop-color:#000000" />
    </linearGradient>
    <linearGradient
       inkscape:collect="always"
       xlink:href="#XMLID_20_"
       id="linearGradient5656"
       gradientUnits="userSpaceOnUse"
       x1="122.5005"
       y1="65.783203"
       x2="122.2657"
       y2="60.677502" />
    <linearGradient
       id="XMLID_20_"
       gradientUnits="userSpaceOnUse"
       x1="122.5005"
       y1="65.783203"
       x2="122.2657"
       y2="60.677502">
      <stop
         offset="0"
         style="stop-color:#FFFFFF"
         id="stop269" />
      <stop
         offset="1"
         style="stop-color:#000000"
         id="stop271" />
      <a:midPointStop
         offset="0"
         style="stop-color:#FFFFFF" />
      <a:midPointStop
         offset="0.5"
         style="stop-color:#FFFFFF" />
      <a:midPointStop
         offset="1"
         style="stop-color:#000000" />
    </linearGradient>
    <linearGradient
       inkscape:collect="always"
       xlink:href="#XMLID_21_"
       id="linearGradient5517"
       gradientUnits="userSpaceOnUse"
       x1="113.2915"
       y1="90.599602"
       x2="113.2915"
       y2="89.1306"
       gradientTransform="translate(33.94767,-45.78017)" />
    <linearGradient
       id="XMLID_21_"
       gradientUnits="userSpaceOnUse"
       x1="113.2915"
       y1="90.599602"
       x2="113.2915"
       y2="89.1306">
      <stop
         offset="0"
         style="stop-color:#FFFFFF"
         id="stop286" />
      <stop
         offset="1"
         style="stop-color:#F0AD00"
         id="stop288" />
      <a:midPointStop
         offset="0"
         style="stop-color:#FFFFFF" />
      <a:midPointStop
         offset="0.5"
         style="stop-color:#FFFFFF" />
      <a:midPointStop
         offset="1"
         style="stop-color:#F0AD00" />
    </linearGradient>
    <linearGradient
       inkscape:collect="always"
       xlink:href="#XMLID_22_"
       id="linearGradient5514"
       gradientUnits="userSpaceOnUse"
       x1="126.5127"
       y1="90.599602"
       x2="126.5127"
       y2="89.130997"
       gradientTransform="translate(33.94767,-45.78017)" />
    <linearGradient
       id="XMLID_22_"
       gradientUnits="userSpaceOnUse"
       x1="126.5127"
       y1="90.599602"
       x2="126.5127"
       y2="89.130997">
      <stop
         offset="0"
         style="stop-color:#FFFFFF"
         id="stop293" />
      <stop
         offset="1"
         style="stop-color:#F0AD00"
         id="stop295" />
      <a:midPointStop
         offset="0"
         style="stop-color:#FFFFFF" />
      <a:midPointStop
         offset="0.5"
         style="stop-color:#FFFFFF" />
      <a:midPointStop
         offset="1"
         style="stop-color:#F0AD00" />
    </linearGradient>
    <linearGradient
       inkscape:collect="always"
       xlink:href="#XMLID_23_"
       id="linearGradient5636"
       gradientUnits="userSpaceOnUse"
       x1="119.9199"
       y1="67.852501"
       x2="120.2017"
       y2="70.860703"
       gradientTransform="translate(33.94767,-45.78017)" />
    <linearGradient
       y2="70.860703"
       x2="120.2017"
       y1="67.852501"
       x1="119.9199"
       gradientUnits="userSpaceOnUse"
       id="XMLID_23_">
      <stop
         id="stop302"
         style="stop-color:#F0AD00"
         offset="0" />
      <stop
         id="stop304"
         style="stop-color:#FFE831"
         offset="1" />
      <a:midPointStop
         style="stop-color:#F0AD00"
         offset="0" />
      <a:midPointStop
         style="stop-color:#F0AD00"
         offset="0.5" />
      <a:midPointStop
         style="stop-color:#FFE831"
         offset="1" />
    </linearGradient>
    <linearGradient
       inkscape:collect="always"
       xlink:href="#XMLID_24_"
       id="linearGradient5633"
       gradientUnits="userSpaceOnUse"
       x1="120.2256"
       y1="74.348602"
       x2="120.2256"
       y2="72.935402"
       gradientTransform="translate(33.94767,-45.78017)" />
    <linearGradient
       y2="72.935402"
       x2="120.2256"
       y1="74.348602"
       x1="120.2256"
       gradientUnits="userSpaceOnUse"
       id="XMLID_24_">
      <stop
         id="stop309"
         style="stop-color:#F0AD00"
         offset="0" />
      <stop
         id="stop311"
         style="stop-color:#FFE831"
         offset="1" />
      <a:midPointStop
         style="stop-color:#F0AD00"
         offset="0" />
      <a:midPointStop
         style="stop-color:#F0AD00"
         offset="0.5" />
      <a:midPointStop
         style="stop-color:#FFE831"
         offset="1" />
    </linearGradient>
    <linearGradient
       inkscape:collect="always"
       xlink:href="#XMLID_25_"
       id="linearGradient5630"
       gradientUnits="userSpaceOnUse"
       x1="118.3003"
       y1="70.911102"
       x2="118.2324"
       y2="71.967903"
       gradientTransform="translate(33.94767,-45.78017)" />
    <linearGradient
       y2="71.967903"
       x2="118.2324"
       y1="70.911102"
       x1="118.3003"
       gradientUnits="userSpaceOnUse"
       id="XMLID_25_">
      <stop
         id="stop316"
         style="stop-color:#FFFFFF"
         offset="0" />
      <stop
         id="stop318"
         style="stop-color:#FFA616"
         offset="1" />
      <a:midPointStop
         style="stop-color:#FFFFFF"
         offset="0" />
      <a:midPointStop
         style="stop-color:#FFFFFF"
         offset="0.5" />
      <a:midPointStop
         style="stop-color:#FFA616"
         offset="1" />
    </linearGradient>
    <linearGradient
       inkscape:collect="always"
       xlink:href="#XMLID_26_"
       id="linearGradient5626"
       gradientUnits="userSpaceOnUse"
       x1="120.4023"
       y1="71.073196"
       x2="120.4336"
       y2="70.383904"
       gradientTransform="translate(33.94767,-45.78017)" />
    <linearGradient
       y2="70.383904"
       x2="120.4336"
       y1="71.073196"
       x1="120.4023"
       gradientUnits="userSpaceOnUse"
       id="XMLID_26_">
      <stop
         id="stop325"
         style="stop-color:#FF1300"
         offset="0" />
      <stop
         id="stop327"
         style="stop-color:#0A0905"
         offset="1" />
      <a:midPointStop
         style="stop-color:#FF1300"
         offset="0" />
      <a:midPointStop
         style="stop-color:#FF1300"
         offset="0.5" />
      <a:midPointStop
         style="stop-color:#0A0905"
         offset="1" />
    </linearGradient>
    <linearGradient
       inkscape:collect="always"
       xlink:href="#XMLID_27_"
       id="linearGradient5477"
       gradientUnits="userSpaceOnUse"
       x1="19.2139"
       y1="67.336899"
       x2="37.621899"
       y2="77.596703"
       gradientTransform="translate(33.94767,-45.78017)" />
    <linearGradient
       id="XMLID_27_"
       gradientUnits="userSpaceOnUse"
       x1="19.2139"
       y1="67.336899"
       x2="37.621899"
       y2="77.596703">
      <stop
         offset="0.0056"
         style="stop-color:#FFFFFF"
         id="stop342" />
      <stop
         offset="0.60110003"
         style="stop-color:#787e00;stop-opacity:1;"
         id="stop344" />
      <a:midPointStop
         offset="0.0056"
         style="stop-color:#FFFFFF" />
      <a:midPointStop
         offset="0.5"
         style="stop-color:#FFFFFF" />
      <a:midPointStop
         offset="0.6011"
         style="stop-color:#FFD600" />
    </linearGradient>
    <linearGradient
       inkscape:collect="always"
       xlink:href="#XMLID_28_"
       id="linearGradient5474"
       gradientUnits="userSpaceOnUse"
       gradientTransform="matrix(-0.6637,-0.748,-0.748,0.6637,599.97547,199.25253)"
       x1="459.76321"
       y1="274.2803"
       x2="478.1712"
       y2="284.5401" />
    <linearGradient
       id="XMLID_28_"
       gradientUnits="userSpaceOnUse"
       x1="459.76321"
       y1="274.2803"
       x2="478.1712"
       y2="284.5401"
       gradientTransform="matrix(-0.6637,-0.748,-0.748,0.6637,566.0278,245.0327)">
      <stop
         offset="0.0056"
         style="stop-color:#ffffff;stop-opacity:1;"
         id="stop349" />
      <stop
         offset="0.60110003"
         style="stop-color:#787e00;stop-opacity:1;"
         id="stop351" />
      <a:midPointStop
         offset="0.0056"
         style="stop-color:#FFFFFF" />
      <a:midPointStop
         offset="0.5"
         style="stop-color:#FFFFFF" />
      <a:midPointStop
         offset="0.6011"
         style="stop-color:#FFD600" />
    </linearGradient>
    <linearGradient
       inkscape:collect="always"
       xlink:href="#XMLID_19_"
       id="linearGradient3260"
       gradientUnits="userSpaceOnUse"
       x1="117.5161"
       y1="65.782204"
       x2="117.2813"
       y2="60.676498" />
    <linearGradient
       inkscape:collect="always"
       xlink:href="#XMLID_20_"
       id="linearGradient3262"
       gradientUnits="userSpaceOnUse"
       x1="122.5005"
       y1="65.783203"
       x2="122.2657"
       y2="60.677502" />
    <linearGradient
       inkscape:collect="always"
       xlink:href="#XMLID_21_"
       id="linearGradient3264"
       gradientUnits="userSpaceOnUse"
       gradientTransform="translate(33.94767,-45.78017)"
       x1="113.2915"
       y1="90.599602"
       x2="113.2915"
       y2="89.1306" />
    <linearGradient
       inkscape:collect="always"
       xlink:href="#XMLID_22_"
       id="linearGradient3266"
       gradientUnits="userSpaceOnUse"
       gradientTransform="translate(33.94767,-45.78017)"
       x1="126.5127"
       y1="90.599602"
       x2="126.5127"
       y2="89.130997" />
    <linearGradient
       inkscape:collect="always"
       xlink:href="#XMLID_23_"
       id="linearGradient3268"
       gradientUnits="userSpaceOnUse"
       gradientTransform="translate(33.94767,-45.78017)"
       x1="119.9199"
       y1="67.852501"
       x2="120.2017"
       y2="70.860703" />
    <linearGradient
       inkscape:collect="always"
       xlink:href="#XMLID_24_"
       id="linearGradient3270"
       gradientUnits="userSpaceOnUse"
       gradientTransform="translate(33.94767,-45.78017)"
       x1="120.2256"
       y1="74.348602"
       x2="120.2256"
       y2="72.935402" />
    <linearGradient
       inkscape:collect="always"
       xlink:href="#XMLID_25_"
       id="linearGradient3272"
       gradientUnits="userSpaceOnUse"
       gradientTransform="translate(33.94767,-45.78017)"
       x1="118.3003"
       y1="70.911102"
       x2="118.2324"
       y2="71.967903" />
    <linearGradient
       inkscape:collect="always"
       xlink:href="#XMLID_26_"
       id="linearGradient3274"
       gradientUnits="userSpaceOnUse"
       gradientTransform="translate(33.94767,-45.78017)"
       x1="120.4023"
       y1="71.073196"
       x2="120.4336"
       y2="70.383904" />
    <linearGradient
       inkscape:collect="always"
       xlink:href="#XMLID_27_"
       id="linearGradient3276"
       gradientUnits="userSpaceOnUse"
       gradientTransform="translate(33.94767,-45.78017)"
       x1="19.2139"
       y1="67.336899"
       x2="37.621899"
       y2="77.596703" />
    <linearGradient
       inkscape:collect="always"
       xlink:href="#XMLID_28_"
       id="linearGradient3278"
       gradientUnits="userSpaceOnUse"
       gradientTransform="matrix(-0.6637,-0.748,-0.748,0.6637,599.97547,199.25253)"
       x1="459.76321"
       y1="274.2803"
       x2="478.1712"
       y2="284.5401" />
  </defs>
  <sodipodi:namedview
     id="base"
     pagecolor="#ffffff"
     bordercolor="#666666"
     borderopacity="1.0"
     inkscape:pageopacity="0.0"
     inkscape:pageshadow="2"
     inkscape:zoom="1.2"
     inkscape:cx="211.2381"
     inkscape:cy="-3.3333337"
     inkscape:document-units="px"
     inkscape:current-layer="layer1"
     showgrid="false"
     inkscape:window-width="1013"
     inkscape:window-height="563"
     inkscape:window-x="147"
     inkscape:window-y="148"
     inkscape:window-maximized="0" />
  <metadata
     id="metadata6697">
    <rdf:RDF>
      <cc:Work
         rdf:about="">
        <dc:format>image/svg+xml</dc:format>
        <dc:type
           rdf:resource="http://purl.org/dc/dcmitype/StillImage" />
        <dc:title></dc:title>
      </cc:Work>
    </rdf:RDF>
  </metadata>
  <g
     id="layer1"
     inkscape:label="Layer 1"
     inkscape:groupmode="layer">
    <rect
       style="fill:#fbfbfb;fill-opacity:1"
       id="rect7064"
       width="467.5"
       height="71.666664"
       x="2.5000076"
       y="-5.8333282" />
    <flowRoot
       xml:space="preserve"
       id="flowRoot7584"
       style="font-size:40px;font-style:normal;font-weight:normal;fill:#000000;fill-opacity:1;stroke:none;font-family:Bitstream Vera Sans"
       transform="translate(-15.833333,89.166667)"><flowRegion
         id="flowRegion7586"><rect
           id="rect7588"
           width="287.5"
           height="57.5"
           x="95"
           y="-82.5" /></flowRegion><flowPara
         id="flowPara7590" /></flowRoot>    <g
       id="g6975"
       transform="translate(-42.5,-0.83333333)">
      <circle
         style="opacity:0.22999998"
         d="M 62.729,76.850998 C 62.729,90.182599 51.921602,100.99 38.59,100.99 c -13.331601,0 -24.139,-10.807401 -24.139,-24.139002 0,-13.331602 10.807399,-24.139 24.139,-24.139 13.331602,0 24.139,10.807398 24.139,24.139 z"
         i:knockout="Off"
         cx="38.59"
         cy="76.850998"
         r="24.139"
         id="circle166"
         sodipodi:cx="38.59"
         sodipodi:cy="76.850998"
         sodipodi:rx="24.139"
         sodipodi:ry="24.139"
         transform="translate(33.94767,-45.78017)" />
      <circle
         style="opacity:0.22999998"
         d="m 60.617001,75.945 c 0,12.748389 -10.334612,23.083 -23.083001,23.083 -12.748389,0 -23.083,-10.334611 -23.083,-23.083 0,-12.748389 10.334611,-23.083 23.083,-23.083 12.748389,0 23.083001,10.334611 23.083001,23.083 z"
         i:knockout="Off"
         cx="37.534"
         cy="75.945"
         r="23.083"
         id="circle168"
         sodipodi:cx="37.534"
         sodipodi:cy="75.945"
         sodipodi:rx="23.083"
         sodipodi:ry="23.083"
         transform="translate(33.94767,-45.78017)" />
      <path
         i:knockout="Off"
         d="m 69.833667,11.344835 c -10.113,0.654 -18.114997,9.056 -18.114997,19.334 0,4.58 1.591,8.784 4.248,12.102 16.785997,-10.831 15.340997,-25.463 13.866997,-31.436 z"
         id="path170"
         style="opacity:0.16099997" />
      <path
         i:knockout="Off"
         d="m 87.783667,18.833835 c 6.226,7.996 5.251,19.561 -2.437,26.383 -3.427,3.04 -7.628,4.64 -11.871,4.854 -3.039,-19.746 8.863,-28.378 14.308,-31.237 z"
         id="path172"
         style="opacity:0.16099997" />
      <path
         style="opacity:0.22999998"
         i:knockout="Off"
         d="m 88.976667,45.212835 -6.437,-13.81 10.94,-8.242 c -0.476,-1.495 -1.102,-2.924 -1.857,-4.27 l -11.038,8.316 -7.051,-15.127 -2.058,-4.414 -2.047,4.421 -15.379997,33.197 c 1.355,1.561 2.913,2.94 4.638,4.092 l 20.157997,-15.188 6.667,14.302 c 1.265,-0.97 2.426,-2.07 3.465,-3.277 z m -28.631,-2.755 11.143,-24.05 5.4,11.585 -16.543,12.465 z"
         id="path178" />
      <g
         transform="translate(-69.166667,-64.166667)"
         id="g6969">
        <text
           y="106.31453"
           x="161.65044"
           id="XMLID_14_"
           style="opacity:0.22999998">
          <tspan
             x="161.65044"
             y="106.31453"
             font-size="33"
             id="tspan95"
             style="font-size:33px;font-family:AvantGardeITCbyBT-Book">mr</tspan>
        </text>
        <text
           y="104.17326"
           x="161.77087"
           id="XMLID_17_">
          <tspan
             x="161.77087"
             y="104.17326"
             font-size="33"
             id="tspan218"
             style="font-size:33px;font-family:AvantGardeITCbyBT-Book">mr</tspan>
        </text>
      </g>
      <g
         id="g6917">
        <polyline
           transform="translate(33.94767,-45.78017)"
           i:knockout="Off"
           points="136.359,71.504 157.479,95.452 167.3,95.452 139.184,72.045 "
           id="polyline86"
           style="opacity:0.22999998" />
        <polygon
           transform="translate(33.94767,-45.78017)"
           i:knockout="Off"
           points="152.175,67.808 134.341,88.726 133.803,91.551 159.797,67.808 "
           id="polygon88"
           style="opacity:0.22999998" />
        <path
           id="path97"
           d="m 168.29467,17.918835 c -3.725,-3.735 -8.23,-5.606 -13.512,-5.606 -5.019,0 -9.36299,1.902 -13.03099,5.706 -3.67,3.803 -5.504,8.38 -5.504,13.731 0,5.286 1.83,9.813 5.488,13.583 3.659,3.771 8.12799,5.657 13.41199,5.657 5.194,0 9.615,-1.926 13.261,-5.772 3.648,-3.848 5.472,-8.49 5.472,-13.932 0,-5.173 -1.863,-9.63 -5.586,-13.367 z m -1.9,25.809 c -3.028,3.241 -6.772,4.864 -11.237,4.864 -4.539,0 -8.33599,-1.623 -11.38799,-4.864 -3.051,-3.244 -4.577,-7.264 -4.577,-12.059 0,-4.794 1.521,-8.819 4.559,-12.074 3.039,-3.255 6.67599,-4.884 10.91599,-4.884 4.716,0 8.605,1.583 11.669,4.751 3.065,3.167 4.598,7.21 4.598,12.131 0,4.846 -1.514,8.891 -4.54,12.135 z"
           i:knockout="Off"
           style="opacity:0.22999998" />
        <path
           id="path112"
           d="m 149.73567,41.651835 c 0,0 -2.79599,2.396 -5.59399,2.317 -2.795,-0.082 -3.115,1.197 2.957,1.357 6.07299,0.159 7.11199,0.159 7.27099,-3.276"
           i:knockout="Off"
           style="opacity:0.22999998" />
        <path
           id="path114"
           d="m 155.48367,42.288835 c 0.16,3.437 1.199,3.437 7.272,3.277 6.071,-0.161 5.751,-1.438 2.956,-1.359 -2.797,0.081 -5.594,-2.315 -5.594,-2.315"
           i:knockout="Off"
           style="opacity:0.22999998" />
        <path
           id="path120"
           d="m 171.82167,28.148835 c -2.557,1.198 -4.554,-1.119 -7.271,-1.998 -2.717,-0.879 -2.237,-3.436 -2.237,-3.436 -0.754,-8.073 -6.631,-7.813 -7.488,-7.758 -0.858,-0.055 -6.733,-0.315 -7.48799,7.758 0,0 0.47899,2.557 -2.237,3.436 -2.716,0.879 -4.714,3.196 -7.27,1.998 0,0 -0.56,3.115 5.912,3.595 0,0 1.518,-0.799 0.639,4.075 -0.877,4.868 4.45999,8.3 10.44499,7.912 5.982,0.388 11.322,-3.044 10.443,-7.912 -0.879,-4.874 0.639,-4.075 0.639,-4.075 6.473,-0.48 5.913,-3.595 5.913,-3.595 z"
           i:knockout="Off"
           style="opacity:0.22999998" />
        <path
           id="path126"
           d="m 163.67467,30.377835 c -2.27,-3.303 -1.445,-6.707 -1.445,-6.707 0,-8.906 -6.637,-8.844 -7.32,-8.813 -0.683,-0.03 -7.31999,-0.093 -7.31999,8.813 0,0 0.82499,3.404 -1.445,6.707 0,0 -3.302,7.531 3.40499,10.731 0,0 2.497,1.146 5.36,0.672 2.862,0.475 5.36,-0.672 5.36,-0.672 6.706,-3.2 3.405,-10.731 3.405,-10.731 z"
           i:knockout="Off"
           style="opacity:0.22999998" />
        <circle
           transform="translate(33.94767,-45.78017)"
           sodipodi:ry="1.638"
           sodipodi:rx="1.638"
           sodipodi:cy="66.336998"
           sodipodi:cx="118.232"
           id="circle128"
           r="1.638"
           cy="66.336998"
           cx="118.232"
           i:knockout="Off"
           d="m 119.87,66.336998 c 0,0.904642 -0.73336,1.638 -1.638,1.638 -0.90464,0 -1.638,-0.733358 -1.638,-1.638 0,-0.904642 0.73336,-1.638 1.638,-1.638 0.90464,0 1.638,0.733358 1.638,1.638 z"
           style="opacity:0.22999998" />
        <circle
           transform="translate(33.94767,-45.78017)"
           sodipodi:ry="0.81599998"
           sodipodi:rx="0.81599998"
           sodipodi:cy="66.208"
           sodipodi:cx="118.313"
           id="circle130"
           r="0.81599998"
           cy="66.208"
           cx="118.313"
           i:knockout="Off"
           d="m 119.129,66.208 c 0,0.450665 -0.36533,0.816 -0.816,0.816 -0.45066,0 -0.816,-0.365335 -0.816,-0.816 0,-0.450664 0.36534,-0.816 0.816,-0.816 0.45067,0 0.816,0.365336 0.816,0.816 z"
           style="opacity:0.22999998" />
        <circle
           transform="translate(33.94767,-45.78017)"
           sodipodi:ry="1.638"
           sodipodi:rx="1.638"
           sodipodi:cy="66.336998"
           sodipodi:cx="123.217"
           id="circle132"
           r="1.638"
           cy="66.336998"
           cx="123.217"
           i:knockout="Off"
           d="m 124.855,66.336998 c 0,0.904642 -0.73335,1.638 -1.638,1.638 -0.90464,0 -1.638,-0.733358 -1.638,-1.638 0,-0.904642 0.73336,-1.638 1.638,-1.638 0.90465,0 1.638,0.733358 1.638,1.638 z"
           style="opacity:0.22999998" />
        <circle
           transform="translate(33.94767,-45.78017)"
           sodipodi:ry="0.81699997"
           sodipodi:rx="0.81699997"
           sodipodi:cy="66.208"
           sodipodi:cx="123.297"
           id="circle134"
           r="0.81699997"
           cy="66.208"
           cx="123.297"
           i:knockout="Off"
           d="m 124.114,66.208 c 0,0.451217 -0.36579,0.817 -0.817,0.817 -0.45122,0 -0.817,-0.365783 -0.817,-0.817 0,-0.451216 0.36578,-0.817 0.817,-0.817 0.45121,0 0.817,0.365784 0.817,0.817 z"
           style="opacity:0.22999998" />
        <path
           style="opacity:0.12189995"
           id="path136"
           d="m 147.76067,26.389835 c 0,0 0.076,1.758 -1.75599,4.431 0,0 -4.2,11.225 8.78299,11.073 0,0 -11.22599,-2.063 -8.32499,-10.922 0,0 2.21399,-3.742 1.29799,-4.582 z"
           i:knockout="Off" />
        <path
           style="opacity:0.09659998"
           id="path138"
           d="m 146.45868,25.754835 c 0,0 -4.453,4.201 -8.234,2.856 0,0 1.092,3.277 5.881,2.186 0.001,0 3.86499,-1.513 2.353,-5.042 z"
           i:knockout="Off" />
        <path
           style="opacity:0.09659998"
           id="path140"
           d="m 163.23467,25.754835 c 0,0 4.452,4.201 8.235,2.856 0,0 -1.093,3.277 -5.882,2.186 0,0 -3.865,-1.513 -2.353,-5.042 z"
           i:knockout="Off" />
        <path
           style="opacity:0.10810002"
           id="path142"
           d="m 161.18167,20.285835 c 0,1.541 -0.073,2.375 -0.625,3.702 -0.598,1.444 -0.843,2.893 -0.425,4.473 0.532,2.006 1.794,4.106 1.99,6.191 0.132,1.405 -0.258,3.457 -1.486,3.843 2.747,-0.076 3.418,-3.919 2.626,-6.72 -0.434,-1.532 -1.453,-2.268 -2.128,-3.542 -0.715,-1.353 -0.215,-2.897 0.36,-4.166 0.878,-1.94 0.459,-4.372 -0.695,-5.996 0.252,0.857 0.383,1.673 0.383,2.603"
           i:knockout="Off" />
        <path
           style="opacity:0.12879998"
           id="path144"
           d="m 143.34568,44.346835 c 0,0 5.20099,1.784 9.21199,-0.148"
           i:knockout="Off" />
        <path
           style="opacity:0.12879998"
           id="path146"
           d="m 165.77867,44.495835 c 0,0 -5.199,1.783 -9.211,-0.149"
           i:knockout="Off" />
        <path
           i:knockout="Off"
           d="m 155.35367,22.872835 c -0.581,-0.447 -1.009,-0.381 -1.531,0.156 -0.671,0.697 -1.563,1.515 -2.468,1.799 -0.25,0.079 -0.823,0.202 -0.987,0.448 -0.256,0.389 0.131,0.504 0.431,0.517 0.95,0.036 1.797,-0.336 2.722,-0.392 0.775,-0.044 1.615,-0.035 2.375,0.041 0.752,0.074 1.448,0.232 2.208,0.232 0.417,0 1.711,0.186 1.199,-0.534 -0.344,-0.484 -1.147,-0.422 -1.64,-0.632 -1.121,-0.479 -1.298,-0.961 -2.288,-1.621"
           id="path150"
           style="opacity:0.22999998" />
        <path
           i:knockout="Off"
           d="m 150.49767,25.372835 c 0,0 -0.233,0.403 0.349,0.526 0.583,0.123 3.056,1.759 4.075,1.667 1.018,-0.095 4.4,-1.576 4.4,-1.976 0,-0.402 -6.087,-0.958 -8.824,-0.217 z"
           id="path152"
           style="opacity:0.22999998" />
        <path
           i:knockout="Off"
           d="m 150.84967,25.347835 c 0,0 2.072,1.063 3.495,1.177 0.787,0.061 0.728,-0.744 0.728,-0.744 l -4.223,-0.433 z"
           id="path154"
           style="opacity:0.22999998" />
        <path
           i:knockout="Off"
           d="m 150.90767,25.316835 c 0,0 3.379,-0.462 3.875,-0.434 0.495,0.032 4.019,0.404 4.019,0.404 0,0 -3.612,1.082 -4.223,0.895 -0.611,-0.185 -3.7,-0.618 -3.671,-0.865 z"
           id="path156"
           style="opacity:0.22999998" />
        <path
           i:knockout="Off"
           d="m 154.11267,25.194835 c 0,0.245 -0.027,0.632 0.202,0.803 0.124,0.092 0.576,0.153 0.721,0.116 0.374,-0.091 0.452,-0.203 0.62,-0.456 0.127,-0.196 0.191,-0.388 0.408,-0.433 -0.125,-0.402 -1.57,-0.049 -1.922,-0.063"
           id="path158"
           style="opacity:0.22999998" />
        <path
           i:knockout="Off"
           d="m 154.14267,23.492835 c -0.176,0.071 -0.422,0.015 -0.346,0.305 0.164,0.031 0.392,-0.094 0.402,-0.273"
           id="path160"
           style="opacity:0.22999998" />
        <path
           i:knockout="Off"
           d="m 155.30567,23.492835 c 0.175,0.071 0.421,0.015 0.346,0.305 -0.164,0.031 -0.393,-0.094 -0.404,-0.273"
           id="path162"
           style="opacity:0.22999998" />
        <polyline
           transform="translate(35.727331,-46.96661)"
           i:knockout="Off"
           points="135.646,71.029 156.766,94.977 166.587,94.977 138.471,71.569 "
           id="polyline209" />
        <polygon
           transform="translate(35.727331,-46.96661)"
           i:knockout="Off"
           points="133.628,88.25 133.09,91.075 159.084,67.332 151.462,67.332 "
           id="polygon211" />
        <path
           style="fill:#787e00;fill-opacity:1"
           id="path220"
           d="m 167.58167,17.443835 c -3.725,-3.735 -8.23,-5.606 -13.512,-5.606 -5.019,0 -9.36299,1.903 -13.03099,5.706 -3.67,3.803 -5.504,8.381 -5.504,13.731 0,5.286 1.83,9.814 5.488,13.584 3.659,3.771 8.12799,5.656 13.41199,5.656 5.194,0 9.615,-1.925 13.261,-5.772 3.648,-3.848 5.472,-8.489 5.472,-13.932 0,-5.174 -1.863,-9.63 -5.586,-13.367 z m -1.9,25.808 c -3.028,3.241 -6.772,4.864 -11.237,4.864 -4.539,0 -8.33599,-1.623 -11.38799,-4.864 -3.051,-3.244 -4.577,-7.263 -4.577,-12.058 0,-4.795 1.521,-8.82 4.559,-12.074 3.039,-3.256 6.67599,-4.885 10.91599,-4.885 4.716,0 8.605,1.584 11.669,4.752 3.065,3.166 4.598,7.209 4.598,12.131 0,4.845 -1.514,8.89 -4.54,12.134 z"
           i:knockout="Off" />
        <path
           style="fill:#f0ad00;stroke:#000000;stroke-width:0.42309999"
           id="path235"
           d="m 149.02267,41.175835 c 0,0 -2.79599,2.396 -5.59399,2.317 -2.795,-0.081 -3.115,1.198 2.957,1.357 6.07299,0.16 7.11199,0.16 7.27099,-3.275"
           i:knockout="Off" />
        <path
           style="fill:#f0ad00;stroke:#000000;stroke-width:0.42309999"
           id="path237"
           d="m 154.77067,41.813835 c 0.16,3.438 1.199,3.438 7.272,3.277 6.071,-0.16 5.751,-1.438 2.956,-1.358 -2.797,0.08 -5.594,-2.316 -5.594,-2.316"
           i:knockout="Off" />
        <path
           id="path243"
           d="m 171.10967,27.672835 c -2.558,1.199 -4.554,-1.119 -7.271,-1.998 -2.717,-0.879 -2.237,-3.436 -2.237,-3.436 -0.754,-8.073 -6.631,-7.812 -7.488,-7.757 -0.857,-0.055 -6.73299,-0.316 -7.48799,7.757 0,0 0.479,2.557 -2.237,3.436 -2.716,0.879 -4.714,3.197 -7.27,1.998 0,0 -0.56,3.115 5.912,3.596 0,0 1.518,-0.8 0.639,4.074 -0.877,4.867 4.45999,8.3 10.44499,7.912 5.982,0.388 11.322,-3.045 10.443,-7.912 -0.879,-4.874 0.639,-4.074 0.639,-4.074 6.472,-0.481 5.913,-3.596 5.913,-3.596 z"
           i:knockout="Off" />
        <path
           style="fill:none;stroke:#000000;stroke-width:0.42309999"
           id="path247"
           d="m 171.10967,27.672835 c -2.558,1.199 -4.554,-1.119 -7.271,-1.998 -2.717,-0.879 -2.237,-3.436 -2.237,-3.436 -0.754,-8.073 -6.631,-7.812 -7.488,-7.757 -0.857,-0.055 -6.73299,-0.316 -7.48799,7.757 0,0 0.479,2.557 -2.237,3.436 -2.716,0.879 -4.714,3.197 -7.27,1.998 0,0 -0.56,3.115 5.912,3.596 0,0 1.518,-0.8 0.639,4.074 -0.877,4.867 4.45999,8.3 10.44499,7.912 5.982,0.388 11.322,-3.045 10.443,-7.912 -0.879,-4.874 0.639,-4.074 0.639,-4.074 6.472,-0.481 5.913,-3.596 5.913,-3.596 z"
           i:knockout="Off" />
        <path
           style="fill:#ffffff"
           id="path253"
           d="m 162.96167,29.902835 c -2.27,-3.302 -1.445,-6.707 -1.445,-6.707 0,-8.907 -6.638,-8.844 -7.32,-8.813 -0.682,-0.03 -7.31999,-0.094 -7.31999,8.813 0,0 0.82499,3.405 -1.445,6.707 0,0 -3.302,7.532 3.40499,10.731 0,0 2.497,1.146 5.36,0.672 2.862,0.475 5.36,-0.672 5.36,-0.672 6.706,-3.199 3.405,-10.731 3.405,-10.731 z"
           i:knockout="Off" />
        <path
           style="fill:none;stroke:#000000;stroke-width:0.42309999"
           id="path257"
           d="m 162.96167,29.902835 c -2.27,-3.302 -1.445,-6.707 -1.445,-6.707 0,-8.907 -6.638,-8.844 -7.32,-8.813 -0.682,-0.03 -7.31999,-0.094 -7.31999,8.813 0,0 0.82499,3.405 -1.445,6.707 0,0 -3.302,7.532 3.40499,10.731 0,0 2.497,1.146 5.36,0.672 2.862,0.475 5.36,-0.672 5.36,-0.672 6.706,-3.199 3.405,-10.731 3.405,-10.731 z"
           i:knockout="Off" />
        <circle
           transform="translate(33.94767,-45.78017)"
           d="m 119.157,65.861 c 0,0.904642 -0.73336,1.638 -1.638,1.638 -0.90465,0 -1.638,-0.733358 -1.638,-1.638 0,-0.904642 0.73335,-1.638 1.638,-1.638 0.90464,0 1.638,0.733358 1.638,1.638 z"
           sodipodi:ry="1.638"
           sodipodi:rx="1.638"
           sodipodi:cy="65.861"
           sodipodi:cx="117.519"
           style="fill:url(#linearGradient3260)"
           id="circle264"
           r="1.638"
           cy="65.861"
           cx="117.519"
           i:knockout="Off" />
        <circle
           transform="translate(33.94767,-45.78017)"
           d="m 118.417,65.732002 c 0,0.451217 -0.36578,0.817 -0.817,0.817 -0.45122,0 -0.817,-0.365783 -0.817,-0.817 0,-0.451216 0.36578,-0.817 0.817,-0.817 0.45122,0 0.817,0.365784 0.817,0.817 z"
           sodipodi:ry="0.81699997"
           sodipodi:rx="0.81699997"
           sodipodi:cy="65.732002"
           sodipodi:cx="117.6"
           id="circle266"
           r="0.81699997"
           cy="65.732002"
           cx="117.6"
           i:knockout="Off" />
        <circle
           transform="translate(33.94767,-45.78017)"
           d="m 124.142,65.861 c 0,0.904642 -0.73336,1.638 -1.638,1.638 -0.90464,0 -1.638,-0.733358 -1.638,-1.638 0,-0.904642 0.73336,-1.638 1.638,-1.638 0.90464,0 1.638,0.733358 1.638,1.638 z"
           sodipodi:ry="1.638"
           sodipodi:rx="1.638"
           sodipodi:cy="65.861"
           sodipodi:cx="122.504"
           style="fill:url(#linearGradient3262)"
           id="circle273"
           r="1.638"
           cy="65.861"
           cx="122.504"
           i:knockout="Off" />
        <circle
           transform="translate(33.94767,-45.78017)"
           d="m 123.401,65.732002 c 0,0.451217 -0.36578,0.817 -0.817,0.817 -0.45122,0 -0.817,-0.365783 -0.817,-0.817 0,-0.451216 0.36578,-0.817 0.817,-0.817 0.45122,0 0.817,0.365784 0.817,0.817 z"
           sodipodi:ry="0.81699997"
           sodipodi:rx="0.81699997"
           sodipodi:cy="65.732002"
           sodipodi:cx="122.584"
           id="circle275"
           r="0.81699997"
           cy="65.732002"
           cx="122.584"
           i:knockout="Off" />
        <path
           style="opacity:0.52999998;fill:#ababab"
           id="path277"
           d="m 147.04768,25.913835 c 0,0 0.076,1.758 -1.756,4.431 0,0 -4.2,11.225 8.78299,11.073 0,0 -11.22599,-2.063 -8.32499,-10.922 0,0 2.21399,-3.742 1.298,-4.582 z"
           i:knockout="Off" />
        <path
           style="opacity:0.41999996;fill:#707070"
           id="path279"
           d="m 145.74568,25.279835 c 0,0 -4.453,4.201 -8.234,2.857 0,0 1.092,3.276 5.881,2.185 10e-4,0 3.865,-1.512 2.353,-5.042 z"
           i:knockout="Off" />
        <path
           style="opacity:0.41999996;fill:#707070"
           id="path281"
           d="m 162.52167,25.279835 c 0,0 4.452,4.201 8.235,2.857 0,0 -1.093,3.276 -5.882,2.185 0,0 -3.865,-1.512 -2.353,-5.042 z"
           i:knockout="Off" />
        <path
           style="opacity:0.47000002;fill:#ababab"
           id="path283"
           d="m 160.46867,19.811835 c 0,1.541 -0.073,2.374 -0.625,3.701 -0.598,1.444 -0.843,2.893 -0.425,4.474 0.532,2.006 1.794,4.106 1.99,6.19 0.132,1.406 -0.258,3.457 -1.486,3.843 2.747,-0.075 3.418,-3.918 2.626,-6.72 -0.434,-1.531 -1.453,-2.268 -2.128,-3.542 -0.715,-1.353 -0.215,-2.897 0.36,-4.166 0.878,-1.939 0.459,-4.372 -0.695,-5.996 0.252,0.857 0.383,1.674 0.383,2.603"
           i:knockout="Off" />
        <path
           style="opacity:0.56000001;fill:url(#linearGradient3264)"
           id="path290"
           d="m 142.63268,43.870835 c 0,0 5.20099,1.784 9.21199,-0.148"
           i:knockout="Off" />
        <path
           style="opacity:0.56000001;fill:url(#linearGradient3266)"
           id="path297"
           d="m 165.06567,44.020835 c 0,0 -5.199,1.783 -9.211,-0.149"
           i:knockout="Off" />
        <path
           i:knockout="Off"
           d="m 154.64167,22.397835 c -0.581,-0.446 -1.01,-0.381 -1.531,0.157 -0.671,0.696 -1.563,1.515 -2.468,1.799 -0.25,0.078 -0.823,0.202 -0.987,0.448 -0.256,0.388 0.131,0.504 0.431,0.516 0.95,0.036 1.797,-0.336 2.722,-0.392 0.775,-0.044 1.615,-0.035 2.375,0.042 0.752,0.073 1.448,0.231 2.208,0.231 0.417,0 1.711,0.186 1.199,-0.534 -0.344,-0.483 -1.147,-0.422 -1.64,-0.631 -1.121,-0.479 -1.298,-0.962 -2.288,-1.622"
           id="path306"
           style="fill:url(#linearGradient3268)" />
        <path
           i:knockout="Off"
           d="m 149.78467,24.897835 c 0,0 -0.233,0.403 0.349,0.526 0.583,0.124 3.056,1.76 4.075,1.667 1.018,-0.094 4.4,-1.575 4.4,-1.976 0,-0.403 -6.087,-0.958 -8.824,-0.217 z"
           id="path313"
           style="fill:url(#linearGradient3270)" />
        <path
           i:knockout="Off"
           d="m 150.13667,24.871835 c 0,0 2.072,1.063 3.495,1.177 0.787,0.061 0.729,-0.743 0.729,-0.743 l -4.224,-0.434 z"
           id="path320"
           style="fill:url(#linearGradient3272)" />
        <path
           i:knockout="Off"
           d="m 150.19467,24.841835 c 0,0 3.379,-0.463 3.875,-0.434 0.495,0.031 4.019,0.403 4.019,0.403 0,0 -3.612,1.082 -4.223,0.895 -0.611,-0.184 -3.7,-0.618 -3.671,-0.864 z"
           id="path322" />
        <path
           i:knockout="Off"
           d="m 153.39967,24.718835 c 0,0.245 -0.027,0.632 0.202,0.803 0.124,0.092 0.576,0.153 0.721,0.116 0.374,-0.09 0.452,-0.202 0.62,-0.456 0.127,-0.195 0.191,-0.388 0.408,-0.433 -0.125,-0.402 -1.57,-0.049 -1.922,-0.062"
           id="path329"
           style="fill:url(#linearGradient3274)" />
        <path
           i:knockout="Off"
           d="m 153.42967,23.018835 c -0.176,0.07 -0.422,0.014 -0.346,0.305 0.164,0.03 0.392,-0.094 0.402,-0.274"
           id="path331" />
        <path
           i:knockout="Off"
           d="m 154.59367,23.018835 c 0.175,0.07 0.421,0.014 0.346,0.305 -0.164,0.03 -0.393,-0.094 -0.404,-0.274"
           id="path333" />
      </g>
      <circle
         i:knockout="Off"
         cx="37.876999"
         cy="76.375999"
         r="24.139"
         id="circle337"
         sodipodi:cx="37.876999"
         sodipodi:cy="76.375999"
         sodipodi:rx="24.139"
         sodipodi:ry="24.139"
         d="m 62.015999,76.375999 c 0,13.331602 -10.807399,24.139001 -24.139,24.139001 -13.331602,0 -24.139,-10.807399 -24.139,-24.139001 0,-13.331601 10.807398,-24.138999 24.139,-24.138999 13.331601,0 24.139,10.807398 24.139,24.138999 z"
         transform="translate(33.94767,-45.78017)" />
      <circle
         i:knockout="Off"
         cx="36.821999"
         cy="75.470001"
         r="23.083"
         id="circle339"
         sodipodi:cx="36.821999"
         sodipodi:cy="75.470001"
         sodipodi:rx="23.083"
         sodipodi:ry="23.083"
         style="fill:#787e00;fill-opacity:1"
         d="m 59.904999,75.470001 c 0,12.748389 -10.334611,23.083 -23.083,23.083 -12.748389,0 -23.083001,-10.334611 -23.083001,-23.083 0,-12.748389 10.334612,-23.083 23.083001,-23.083 12.748389,0 23.083,10.334611 23.083,23.083 z"
         transform="translate(33.94767,-45.78017)" />
      <path
         i:knockout="Off"
         d="m 69.120667,10.869835 c -10.112997,0.653 -18.114997,9.056 -18.114997,19.333 0,4.58 1.591,8.785 4.248,12.102 16.785997,-10.829 15.340997,-25.463 13.866997,-31.435 z"
         id="path346"
         style="opacity:0.7;fill:url(#linearGradient3276)" />
      <path
         i:knockout="Off"
         d="m 87.070667,18.358835 c 6.226,7.997 5.251,19.562 -2.437,26.383 -3.427,3.041 -7.628,4.64 -11.871,4.854 -3.039,-19.746 8.863,-28.378 14.308,-31.237 z"
         id="path353"
         style="opacity:0.7;fill:url(#linearGradient3278)" />
      <path
         i:knockout="Off"
         d="m 88.264667,44.737835 -6.437,-13.81 10.94,-8.242 c -0.476,-1.495 -1.102,-2.923 -1.857,-4.27 l -11.039,8.317 -7.051,-15.128 -2.058,-4.415 -2.047,4.421 -15.379997,33.199 c 1.355,1.561 2.912,2.939 4.637,4.091 l 20.158997,-15.188 6.667,14.302 c 1.265,-0.971 2.426,-2.069 3.466,-3.277 z m -28.632,-2.755 11.143,-24.049 5.4,11.585 -16.543,12.464 z"
         id="path359" />
    </g>
    <flowRoot
       xml:space="preserve"
       id="flowRoot7576"
       style="font-size:10px;font-style:normal;font-variant:normal;font-weight:bold;font-stretch:normal;fill:#000000;fill-opacity:1;stroke:none;font-family:Courier New;-inkscape-font-specification:Andale Mono Bold"
       transform="translate(233.33333,105)"><flowRegion
         id="flowRegion7578"><rect
           id="rect7580"
           width="295.83331"
           height="53.333336"
           x="-68.333336"
           y="-80"
           style="font-size:10px;font-style:normal;font-variant:normal;font-weight:bold;font-stretch:normal;font-family:Courier New;-inkscape-font-specification:Andale Mono Bold" /></flowRegion><flowPara
         id="flowPara7582">O n l i n e</flowPara></flowRoot>    <text
       xml:space="preserve"
       style="font-size:16px;font-style:normal;font-weight:normal;fill:#000000;fill-opacity:1;stroke:none;font-family:Bitstream Vera Sans"
       x="267.5"
       y="36.666656"
       id="text7592"><tspan
         sodipodi:role="line"
         id="tspan7594"
         x="267.5"
         y="36.666656">Online Linux Solutions</tspan></text>
  </g>
</svg>
